<svg xmlns="http://www.w3.org/2000/svg" width="825.98" height="233.52" viewBox="0 0 825.98 233.52"><title>vimeo_logo_blue_on_white</title><path d="M225.66,51.18a37.09,37.09,0,0,0,26.55-10.73q10-9.49,10.38-19.82,0.4-7-5.39-13.82A18.34,18.34,0,0,0,242.66,0a42.2,42.2,0,0,0-27.18,9.9q-12.24,9.91-12.64,20.64Q202,51.19,225.66,51.18Z" fill="#00adef"/><path d="M813,93.95q-14.94-19.46-44-19.47-45.22,0-75.07,33.13-27.82,29.82-25.72,65.45c0.09,1.75.24,3.47,0.42,5.15l-3.11,1.33q-35.27,15.2-65.13,15.19-14.95,0-22.4-10.34,40.22-6.62,66.79-31Q669.7,131,668.06,109.91q-2.49-33.09-43.14-33.11-44,0-76.32,33.18-29.46,30.29-29.87,63.87a75.21,75.21,0,0,0,.55,10.86q-7,4.58-10.5,4.59c-5.26,0-8.57-1.09-10-3.3s-1.94-6.2-1.66-12q0-3.31,5.19-25.41t5.6-33.69q0.82-16.93-6.64-26-8.71-11.16-28.62-9.5-16.58,1.26-31.94,12.45a110.12,110.12,0,0,0-18.66,17.83c-2.22,1.94-4.29,3.75-6.23,5.39q0.4-17-6.63-26.14-8.73-11.2-29-9.54-23.64,2.07-42.72,18.67a76.34,76.34,0,0,0-14.52,16.6,36.73,36.73,0,0,0,.82-7.88,39.21,39.21,0,0,0-6.64-22.61q-6.64-9.75-17.42-8.91-6.22.42-23.64,16.58-24.08,22.4-26.14,24.05l10,11.2q11.62-8.38,14.11-8.39,4.55,0,3.73,7.44-0.4,10.76-3.82,30-2.12,11.92-3.07,20.58l-0.37.31q-14.95,12.29-20.74,12.28-13.27,0-12.86-17.77,6.22-38.84,11.63-64.05,1.64-14.87-4.78-24.17T223.6,75.24q-8.73.84-26.56,16.6L184.67,103q-1.23-29.36-26.86-30.11-38.4-1.24-52,43.37a34.6,34.6,0,0,1,13.67-3q14.09,0,12.44,15.83-0.84,9.58-12.44,27.91T102,175.34q-7.47,0-13.69-28.25-2.09-8.29-7.47-42.35-5-31.57-26.55-29.49Q45.2,76.08,27,91.84q-13.27,12-27,24.05l8.69,11.2q12.42-8.69,14.5-8.7,9.51,0,17.8,29.83L55.9,202.92q11.16,29.84,27.32,29.83,26.08,0,63.75-49,26.48-34.08,34.36-57.64,10.45-7.72,12.8-7.73,7.45,0,7.47,10.78,0,2.07-8.1,30.68T185,202.13q-0.42,13.28,6.42,21.55T211.15,232q27.78,0,55.58-24,2.46-2.15,4.78-4.37a33.18,33.18,0,0,0,7.66,15.23q12,12.84,40.44,12-3.8-9.13-3-32.35a120.49,120.49,0,0,1,13.29-49.36q12-23.64,22.44-23.65,12,0,11.21,15.35a106.47,106.47,0,0,1-4.07,23.65A111.86,111.86,0,0,0,355.43,191q-0.84,21.17,9.52,30.28,11.56,10.37,40.53,9.54-4.33-9.53-3.49-27.38,1.24-25.29,17.07-52.26,15-25.71,25.8-25.72,10,0,9.58,15.76-0.42,10.36-5.19,29t-5.18,31.92Q443.22,232,470.2,232q27.78,0,55.58-24l0.89-.8c0.63,1.09,1.3,2.17,2,3.22q14.51,22.38,48.13,22.39,45.2,0,89.18-25.26c3.27-1.85,6.38-3.69,9.35-5.54a59,59,0,0,0,6.6,10.44q17,21.13,49.77,21.13,39.4,0,66-27.75t28.21-65.86Q827.12,111.77,813,93.95ZM571.48,168.57c-0.16-3.58-.16-5.37,0-5.37q0.4-15.67,13.25-32.8T610,113.27q9.53,0,9.12,11.14-0.42,8.26-12.42,21.47A93.34,93.34,0,0,1,571.48,168.57ZM779,138.35a78.62,78.62,0,0,1-12,38.23q-13.27,22-31.94,22-8.31,0-12.86-9.14a35.61,35.61,0,0,1-3.73-18.29,80.29,80.29,0,0,1,12.45-39.89q13.67-22.86,34.84-22.86,6.62,0,10.16,9.36A52.21,52.21,0,0,1,779,138.35Z" fill="#00adef"/></svg>